<svg width="24" height="24" viewBox="0 0 24 24" fill="none" xmlns="http://www.w3.org/2000/svg">
<path d="M21.4555 10.1543C21.5785 10.8133 21.6455 11.5023 21.6455 12.2213C21.6455 17.8453 17.8815 21.8442 12.1965 21.8442C10.9037 21.8446 9.62344 21.5903 8.42894 21.0957C7.23443 20.6012 6.14908 19.8761 5.2349 18.9619C4.32072 18.0477 3.59563 16.9624 3.10107 15.7679C2.6065 14.5733 2.35215 13.2931 2.35254 12.0003C2.35215 10.7074 2.6065 9.42716 3.10107 8.23265C3.59563 7.03814 4.32072 5.95279 5.2349 5.03861C6.14908 4.12443 7.23443 3.39935 8.42894 2.90478C9.62344 2.41021 10.9037 2.15586 12.1965 2.15625C14.8545 2.15625 17.0755 3.13425 18.7795 4.72225L16.0045 7.49725V7.49025C14.9715 6.50625 13.6605 6.00125 12.1965 6.00125C8.94854 6.00125 6.30854 8.74525 6.30854 11.9943C6.30854 15.2423 8.94854 17.9923 12.1965 17.9923C15.1435 17.9923 17.1495 16.3073 17.5615 13.9933H12.1965V10.1543H21.4565H21.4555Z" fill="white"/>
</svg>
